# xmcd
#
# Track frame offsets:
#	150
#	13662
#	29717
#	47549
#	58277
#	71748
#	86265
#	103576
#	114618
#	125679
#	137500
#	148520
#	164503
#	178860
#	190082
#	203373
#	217075
#	231359
#	243494
#	258311
#	275001
#	288713
#
# Disc length: 3986 seconds
#
# Revision: 0
# Processed by: cddbd v1.4PL0 Copyright (c) Steve Scherf et al.
# Submitted via: audiograbber 1.81.03
#
DISCID=570f9016
DTITLE=Barbi Benton - Barbi Doll - Barbi Benton
DYEAR=1974
DGENRE=Country
TTITLE0=The Teddy Bear Song
TTITLE1=Welcome Stranger
TTITLE2=Queen of the Silver Dollar
TTITLE3=Put A Little Bit On Me
TTITLE4=Loving Arms
TTITLE5=That Country Boy of Mine
TTITLE6=I Can't Touch the Sun
TTITLE7=Now I Lay Me Down To Sleep With You
TTITLE8=If You Can't Do It, That's All Right
TTITLE9=I Don't Know If I'll Ever Love
TTITLE10=Brass Buckles
TTITLE11=Dixie Girl
TTITLE12=Deadeye
TTITLE13=Smile
TTITLE14=Jeremy
TTITLE15=The Reverend Bob
TTITLE16=He Used To Sing To Me
TTITLE17=Movie Magazine Stars In Her Eyes
TTITLE18=He Looks Like His Daddy
TTITLE19=I've Got the Music In Me
TTITLE20=Aint That Just the Way That Life Goes - bonus track
TTITLE21=Rock You Like A Wheel (w/ Mickey Gilley) - bonus track
EXTD=
EXTT0=
EXTT1=
EXTT2=
EXTT3=
EXTT4=
EXTT5=
EXTT6=
EXTT7=
EXTT8=
EXTT9=
EXTT10=
EXTT11=
EXTT12=
EXTT13=
EXTT14=
EXTT15=
EXTT16=
EXTT17=
EXTT18=
EXTT19=
EXTT20=
EXTT21=
PLAYORDER=
